<svg width="36" height="29" viewBox="0 0 36 29" fill="none" xmlns="http://www.w3.org/2000/svg">
<g id="Group 13294">
<path id="Vector" d="M33.4602 0.0204425H29.5291H28.3598L26.6048 0.0203049C26.4221 0.0203049 21.441 -0.0254822 21.2583 0.0204333L16.1359 0.0203696H2.42267C1.09722 0.0203696 0 1.16314 0 2.53454V25.7099C0 27.0813 1.09714 28.224 2.42267 28.224H33.4602C34.7857 28.224 35.8829 27.0813 35.8829 25.7099L35.8832 2.53454C35.8832 1.16314 34.7861 0.0203696 33.4605 0.0203696L33.4602 0.0204425ZM2.42264 1.84871H33.4602C33.7803 1.84871 34.0545 2.16884 34.0545 2.53424V19.8129L24.6381 8.47662C23.9982 7.69958 22.8554 7.69958 22.2155 8.47662L14.9016 17.5273C14.2617 18.3044 13.1189 18.3044 12.4789 17.5273L9.27926 13.6418C8.63932 12.8647 7.49654 12.8647 6.85659 13.6418L1.82826 19.6757L1.82857 2.53424C1.82857 2.16851 2.10279 1.84839 2.42259 1.84839L2.42264 1.84871Z" fill="#456EFF"/>
<path id="Vector_2" d="M16.9688 7.31807C16.9688 9.08544 15.5362 10.5177 13.7692 10.5177C12.0021 10.5177 10.5695 9.08544 10.5695 7.31807C10.5695 5.55103 12.0021 4.11841 13.7692 4.11841C15.5362 4.11841 16.9688 5.55103 16.9688 7.31807Z" fill="#456EFF"/>
</g>
</svg>
